<mxfile host="app.diagrams.net" modified="2024-06-10T15:54:00.085Z" agent="Mozilla/5.0 (Macintosh; Intel Mac OS X 10_15_7) AppleWebKit/537.36 (KHTML, like Gecko) Chrome/125.0.0.0 Safari/537.36" etag="ehebsHSYP4-0ifDCSTNI" version="24.5.2" type="github">
  <diagram name="第 1 页" id="VtR96hqUIIWt65CZwMZ0">
    <mxGraphModel dx="942" dy="526" grid="1" gridSize="10" guides="1" tooltips="1" connect="1" arrows="1" fold="1" page="1" pageScale="1" pageWidth="1169" pageHeight="827" math="0" shadow="0">
      <root>
        <mxCell id="0" />
        <mxCell id="1" parent="0" />
        <mxCell id="YEphL9JRuNFsoVp2nzNq-5" style="edgeStyle=orthogonalEdgeStyle;rounded=0;orthogonalLoop=1;jettySize=auto;html=1;entryX=0.5;entryY=0;entryDx=0;entryDy=0;labelBackgroundColor=none;fontColor=default;" edge="1" parent="1" source="YEphL9JRuNFsoVp2nzNq-1" target="YEphL9JRuNFsoVp2nzNq-2">
          <mxGeometry relative="1" as="geometry">
            <Array as="points">
              <mxPoint x="673" y="140" />
              <mxPoint x="245" y="140" />
            </Array>
          </mxGeometry>
        </mxCell>
        <mxCell id="YEphL9JRuNFsoVp2nzNq-6" style="edgeStyle=orthogonalEdgeStyle;rounded=0;orthogonalLoop=1;jettySize=auto;html=1;labelBackgroundColor=none;fontColor=default;exitX=0.5;exitY=1.032;exitDx=0;exitDy=0;exitPerimeter=0;entryX=0.5;entryY=0;entryDx=0;entryDy=0;" edge="1" parent="1" source="YEphL9JRuNFsoVp2nzNq-1" target="YEphL9JRuNFsoVp2nzNq-4">
          <mxGeometry relative="1" as="geometry">
            <Array as="points">
              <mxPoint x="672" y="140" />
              <mxPoint x="1025" y="140" />
            </Array>
          </mxGeometry>
        </mxCell>
        <mxCell id="YEphL9JRuNFsoVp2nzNq-7" style="edgeStyle=orthogonalEdgeStyle;rounded=0;orthogonalLoop=1;jettySize=auto;html=1;entryX=0.5;entryY=0;entryDx=0;entryDy=0;labelBackgroundColor=none;fontColor=default;" edge="1" parent="1" source="YEphL9JRuNFsoVp2nzNq-1" target="YEphL9JRuNFsoVp2nzNq-3">
          <mxGeometry relative="1" as="geometry" />
        </mxCell>
        <mxCell id="YEphL9JRuNFsoVp2nzNq-1" value="&lt;font style=&quot;font-size: 20px;&quot;&gt;陈皮通过某通路抑制某细胞衰老进而抗肺纤维化的机制研究&lt;/font&gt;" style="rounded=0;whiteSpace=wrap;html=1;labelBackgroundColor=none;" vertex="1" parent="1">
          <mxGeometry x="452.5" y="60" width="440" height="50" as="geometry" />
        </mxCell>
        <mxCell id="YEphL9JRuNFsoVp2nzNq-11" style="edgeStyle=orthogonalEdgeStyle;rounded=0;orthogonalLoop=1;jettySize=auto;html=1;entryX=0.5;entryY=0;entryDx=0;entryDy=0;labelBackgroundColor=none;fontColor=default;" edge="1" parent="1" source="YEphL9JRuNFsoVp2nzNq-2" target="YEphL9JRuNFsoVp2nzNq-8">
          <mxGeometry relative="1" as="geometry" />
        </mxCell>
        <mxCell id="YEphL9JRuNFsoVp2nzNq-12" style="edgeStyle=orthogonalEdgeStyle;rounded=0;orthogonalLoop=1;jettySize=auto;html=1;labelBackgroundColor=none;fontColor=default;" edge="1" parent="1" source="YEphL9JRuNFsoVp2nzNq-2" target="YEphL9JRuNFsoVp2nzNq-10">
          <mxGeometry relative="1" as="geometry" />
        </mxCell>
        <mxCell id="YEphL9JRuNFsoVp2nzNq-13" style="edgeStyle=orthogonalEdgeStyle;rounded=0;orthogonalLoop=1;jettySize=auto;html=1;labelBackgroundColor=none;fontColor=default;" edge="1" parent="1" source="YEphL9JRuNFsoVp2nzNq-2" target="YEphL9JRuNFsoVp2nzNq-9">
          <mxGeometry relative="1" as="geometry" />
        </mxCell>
        <mxCell id="YEphL9JRuNFsoVp2nzNq-2" value="&lt;div&gt;&lt;span style=&quot;font-size: 13.5pt; font-family: MicrosoftYaHei;&quot;&gt;构建类器官评价体系&lt;/span&gt;&lt;/div&gt;" style="rounded=0;whiteSpace=wrap;html=1;labelBackgroundColor=none;" vertex="1" parent="1">
          <mxGeometry x="130" y="190" width="230" height="50" as="geometry" />
        </mxCell>
        <mxCell id="YEphL9JRuNFsoVp2nzNq-26" style="edgeStyle=orthogonalEdgeStyle;rounded=0;orthogonalLoop=1;jettySize=auto;html=1;entryX=0.5;entryY=0;entryDx=0;entryDy=0;" edge="1" parent="1" source="YEphL9JRuNFsoVp2nzNq-3" target="YEphL9JRuNFsoVp2nzNq-25">
          <mxGeometry relative="1" as="geometry" />
        </mxCell>
        <mxCell id="YEphL9JRuNFsoVp2nzNq-27" style="edgeStyle=orthogonalEdgeStyle;rounded=0;orthogonalLoop=1;jettySize=auto;html=1;" edge="1" parent="1" source="YEphL9JRuNFsoVp2nzNq-3" target="YEphL9JRuNFsoVp2nzNq-23">
          <mxGeometry relative="1" as="geometry" />
        </mxCell>
        <mxCell id="YEphL9JRuNFsoVp2nzNq-28" style="edgeStyle=orthogonalEdgeStyle;rounded=0;orthogonalLoop=1;jettySize=auto;html=1;entryX=0.5;entryY=0;entryDx=0;entryDy=0;" edge="1" parent="1" source="YEphL9JRuNFsoVp2nzNq-3" target="YEphL9JRuNFsoVp2nzNq-24">
          <mxGeometry relative="1" as="geometry" />
        </mxCell>
        <mxCell id="YEphL9JRuNFsoVp2nzNq-3" value="&lt;div&gt;&lt;span style=&quot;font-size: 13.5pt; font-family: MicrosoftYaHei;&quot;&gt;构建肺纤维化类器官模型&lt;/span&gt;&lt;/div&gt;&lt;div&gt;&lt;span style=&quot;font-size: 13.5pt; font-family: MicrosoftYaHei;&quot;&gt;及功能评价&lt;/span&gt;&lt;/div&gt;" style="rounded=0;whiteSpace=wrap;html=1;labelBackgroundColor=none;" vertex="1" parent="1">
          <mxGeometry x="557.5" y="190" width="230" height="50" as="geometry" />
        </mxCell>
        <mxCell id="YEphL9JRuNFsoVp2nzNq-41" style="edgeStyle=orthogonalEdgeStyle;rounded=0;orthogonalLoop=1;jettySize=auto;html=1;" edge="1" parent="1" source="YEphL9JRuNFsoVp2nzNq-4" target="YEphL9JRuNFsoVp2nzNq-40">
          <mxGeometry relative="1" as="geometry" />
        </mxCell>
        <mxCell id="YEphL9JRuNFsoVp2nzNq-43" style="edgeStyle=orthogonalEdgeStyle;rounded=0;orthogonalLoop=1;jettySize=auto;html=1;entryX=0.5;entryY=0;entryDx=0;entryDy=0;" edge="1" parent="1" source="YEphL9JRuNFsoVp2nzNq-4" target="YEphL9JRuNFsoVp2nzNq-42">
          <mxGeometry relative="1" as="geometry" />
        </mxCell>
        <mxCell id="YEphL9JRuNFsoVp2nzNq-4" value="&lt;div&gt;&lt;span style=&quot;font-size: 13.5pt; font-family: MicrosoftYaHei;&quot;&gt;构建肺纤维化动物模型及&lt;/span&gt;&lt;/div&gt;&lt;div&gt;&lt;span style=&quot;font-size: 13.5pt; font-family: MicrosoftYaHei;&quot;&gt;功能评价&lt;/span&gt;&lt;/div&gt;" style="rounded=0;whiteSpace=wrap;html=1;labelBackgroundColor=none;" vertex="1" parent="1">
          <mxGeometry x="910" y="190" width="230" height="50" as="geometry" />
        </mxCell>
        <mxCell id="YEphL9JRuNFsoVp2nzNq-8" value="&lt;div&gt;&lt;span style=&quot;font-size: 13.5pt; font-family: MicrosoftYaHei;&quot;&gt;肠类器官&lt;/span&gt;&lt;/div&gt;" style="rounded=0;whiteSpace=wrap;html=1;labelBackgroundColor=none;" vertex="1" parent="1">
          <mxGeometry x="30" y="310" width="100" height="50" as="geometry" />
        </mxCell>
        <mxCell id="YEphL9JRuNFsoVp2nzNq-9" value="&lt;div&gt;&lt;span style=&quot;font-size: 13.5pt; font-family: MicrosoftYaHei;&quot;&gt;肝类器官&lt;/span&gt;&lt;/div&gt;" style="rounded=0;whiteSpace=wrap;html=1;labelBackgroundColor=none;" vertex="1" parent="1">
          <mxGeometry x="195" y="310" width="100" height="50" as="geometry" />
        </mxCell>
        <mxCell id="YEphL9JRuNFsoVp2nzNq-10" value="&lt;div&gt;&lt;span style=&quot;font-size: 13.5pt; font-family: MicrosoftYaHei;&quot;&gt;肺类器官&lt;/span&gt;&lt;/div&gt;" style="rounded=0;whiteSpace=wrap;html=1;labelBackgroundColor=none;" vertex="1" parent="1">
          <mxGeometry x="360" y="310" width="100" height="50" as="geometry" />
        </mxCell>
        <mxCell id="YEphL9JRuNFsoVp2nzNq-14" value="&lt;div&gt;&lt;span style=&quot;font-size: 13.5pt; font-family: MicrosoftYaHei;&quot;&gt;细&lt;/span&gt;&lt;/div&gt;&lt;div&gt;&lt;span style=&quot;font-size: 13.5pt; font-family: MicrosoftYaHei;&quot;&gt;胞&lt;/span&gt;&lt;/div&gt;&lt;div&gt;&lt;span style=&quot;font-size: 13.5pt; font-family: MicrosoftYaHei;&quot;&gt;培&lt;/span&gt;&lt;/div&gt;&lt;div&gt;&lt;span style=&quot;font-size: 13.5pt; font-family: MicrosoftYaHei;&quot;&gt;养&lt;/span&gt;&lt;/div&gt;" style="rounded=0;whiteSpace=wrap;html=1;labelBackgroundColor=none;" vertex="1" parent="1">
          <mxGeometry x="55" y="480" width="50" height="140" as="geometry" />
        </mxCell>
        <mxCell id="YEphL9JRuNFsoVp2nzNq-15" value="&lt;div&gt;&lt;font face=&quot;MicrosoftYaHei&quot;&gt;&lt;span style=&quot;font-size: 18px;&quot;&gt;形&lt;/span&gt;&lt;/font&gt;&lt;/div&gt;&lt;div&gt;&lt;font face=&quot;MicrosoftYaHei&quot;&gt;&lt;span style=&quot;font-size: 18px;&quot;&gt;态&lt;/span&gt;&lt;/font&gt;&lt;/div&gt;&lt;div&gt;&lt;font face=&quot;MicrosoftYaHei&quot;&gt;&lt;span style=&quot;font-size: 18px;&quot;&gt;学&lt;/span&gt;&lt;/font&gt;&lt;/div&gt;&lt;div&gt;&lt;font face=&quot;MicrosoftYaHei&quot;&gt;&lt;span style=&quot;font-size: 18px;&quot;&gt;观&lt;/span&gt;&lt;/font&gt;&lt;/div&gt;&lt;div&gt;&lt;font face=&quot;MicrosoftYaHei&quot;&gt;&lt;span style=&quot;font-size: 18px;&quot;&gt;察&lt;/span&gt;&lt;/font&gt;&lt;/div&gt;" style="rounded=0;whiteSpace=wrap;html=1;labelBackgroundColor=none;" vertex="1" parent="1">
          <mxGeometry x="170" y="480" width="50" height="140" as="geometry" />
        </mxCell>
        <mxCell id="YEphL9JRuNFsoVp2nzNq-16" value="&lt;div&gt;&lt;font face=&quot;MicrosoftYaHei&quot;&gt;&lt;span style=&quot;font-size: 18px;&quot;&gt;功&lt;/span&gt;&lt;/font&gt;&lt;/div&gt;&lt;div&gt;&lt;font face=&quot;MicrosoftYaHei&quot;&gt;&lt;span style=&quot;font-size: 18px;&quot;&gt;能&lt;/span&gt;&lt;/font&gt;&lt;/div&gt;&lt;div&gt;&lt;font face=&quot;MicrosoftYaHei&quot;&gt;&lt;span style=&quot;font-size: 18px;&quot;&gt;指&lt;/span&gt;&lt;/font&gt;&lt;/div&gt;&lt;div&gt;&lt;font face=&quot;MicrosoftYaHei&quot;&gt;&lt;span style=&quot;font-size: 18px;&quot;&gt;标&lt;/span&gt;&lt;/font&gt;&lt;/div&gt;&lt;div&gt;&lt;font face=&quot;MicrosoftYaHei&quot;&gt;&lt;span style=&quot;font-size: 18px;&quot;&gt;鉴&lt;/span&gt;&lt;/font&gt;&lt;/div&gt;&lt;div&gt;&lt;font face=&quot;MicrosoftYaHei&quot;&gt;&lt;span style=&quot;font-size: 18px;&quot;&gt;定&lt;/span&gt;&lt;/font&gt;&lt;/div&gt;" style="rounded=0;whiteSpace=wrap;html=1;labelBackgroundColor=none;" vertex="1" parent="1">
          <mxGeometry x="280" y="480" width="50" height="140" as="geometry" />
        </mxCell>
        <mxCell id="YEphL9JRuNFsoVp2nzNq-17" value="&lt;div&gt;&lt;font face=&quot;MicrosoftYaHei&quot;&gt;&lt;span style=&quot;font-size: 18px;&quot;&gt;基&lt;/span&gt;&lt;/font&gt;&lt;/div&gt;&lt;div&gt;&lt;font face=&quot;MicrosoftYaHei&quot;&gt;&lt;span style=&quot;font-size: 18px;&quot;&gt;因&lt;/span&gt;&lt;/font&gt;&lt;/div&gt;&lt;div&gt;&lt;font face=&quot;MicrosoftYaHei&quot;&gt;&lt;span style=&quot;font-size: 18px;&quot;&gt;表&lt;/span&gt;&lt;/font&gt;&lt;/div&gt;&lt;div&gt;&lt;font face=&quot;MicrosoftYaHei&quot;&gt;&lt;span style=&quot;font-size: 18px;&quot;&gt;达&lt;/span&gt;&lt;/font&gt;&lt;/div&gt;&lt;div&gt;&lt;font face=&quot;MicrosoftYaHei&quot;&gt;&lt;span style=&quot;font-size: 18px;&quot;&gt;分&lt;/span&gt;&lt;/font&gt;&lt;/div&gt;&lt;div&gt;&lt;font face=&quot;MicrosoftYaHei&quot;&gt;&lt;span style=&quot;font-size: 18px;&quot;&gt;析&lt;/span&gt;&lt;/font&gt;&lt;/div&gt;" style="rounded=0;whiteSpace=wrap;html=1;labelBackgroundColor=none;" vertex="1" parent="1">
          <mxGeometry x="385" y="480" width="50" height="140" as="geometry" />
        </mxCell>
        <mxCell id="YEphL9JRuNFsoVp2nzNq-18" value="" style="shape=curlyBracket;whiteSpace=wrap;html=1;rounded=1;labelPosition=left;verticalLabelPosition=middle;align=right;verticalAlign=middle;rotation=90;" vertex="1" parent="1">
          <mxGeometry x="235" y="280" width="20" height="365" as="geometry" />
        </mxCell>
        <mxCell id="YEphL9JRuNFsoVp2nzNq-19" style="edgeStyle=orthogonalEdgeStyle;rounded=0;orthogonalLoop=1;jettySize=auto;html=1;entryX=0.1;entryY=0.5;entryDx=0;entryDy=0;entryPerimeter=0;" edge="1" parent="1" source="YEphL9JRuNFsoVp2nzNq-8" target="YEphL9JRuNFsoVp2nzNq-18">
          <mxGeometry relative="1" as="geometry" />
        </mxCell>
        <mxCell id="YEphL9JRuNFsoVp2nzNq-20" style="edgeStyle=orthogonalEdgeStyle;rounded=0;orthogonalLoop=1;jettySize=auto;html=1;entryX=0.1;entryY=0.5;entryDx=0;entryDy=0;entryPerimeter=0;" edge="1" parent="1" source="YEphL9JRuNFsoVp2nzNq-9" target="YEphL9JRuNFsoVp2nzNq-18">
          <mxGeometry relative="1" as="geometry" />
        </mxCell>
        <mxCell id="YEphL9JRuNFsoVp2nzNq-21" style="edgeStyle=orthogonalEdgeStyle;rounded=0;orthogonalLoop=1;jettySize=auto;html=1;entryX=0.1;entryY=0.5;entryDx=0;entryDy=0;entryPerimeter=0;" edge="1" parent="1" source="YEphL9JRuNFsoVp2nzNq-10" target="YEphL9JRuNFsoVp2nzNq-18">
          <mxGeometry relative="1" as="geometry" />
        </mxCell>
        <mxCell id="YEphL9JRuNFsoVp2nzNq-34" style="edgeStyle=orthogonalEdgeStyle;rounded=0;orthogonalLoop=1;jettySize=auto;html=1;entryX=0.5;entryY=0;entryDx=0;entryDy=0;" edge="1" parent="1" source="YEphL9JRuNFsoVp2nzNq-23" target="YEphL9JRuNFsoVp2nzNq-33">
          <mxGeometry relative="1" as="geometry" />
        </mxCell>
        <mxCell id="YEphL9JRuNFsoVp2nzNq-23" value="&lt;div&gt;&lt;span style=&quot;font-size: 13.5pt; font-family: MicrosoftYaHei;&quot;&gt;关键单体&lt;/span&gt;&lt;/div&gt;" style="rounded=0;whiteSpace=wrap;html=1;labelBackgroundColor=none;" vertex="1" parent="1">
          <mxGeometry x="631.25" y="310" width="100" height="50" as="geometry" />
        </mxCell>
        <mxCell id="YEphL9JRuNFsoVp2nzNq-38" style="edgeStyle=orthogonalEdgeStyle;rounded=0;orthogonalLoop=1;jettySize=auto;html=1;" edge="1" parent="1" source="YEphL9JRuNFsoVp2nzNq-24" target="YEphL9JRuNFsoVp2nzNq-35">
          <mxGeometry relative="1" as="geometry" />
        </mxCell>
        <mxCell id="YEphL9JRuNFsoVp2nzNq-39" style="edgeStyle=orthogonalEdgeStyle;rounded=0;orthogonalLoop=1;jettySize=auto;html=1;" edge="1" parent="1" source="YEphL9JRuNFsoVp2nzNq-24" target="YEphL9JRuNFsoVp2nzNq-36">
          <mxGeometry relative="1" as="geometry" />
        </mxCell>
        <mxCell id="YEphL9JRuNFsoVp2nzNq-24" value="&lt;div&gt;&lt;span style=&quot;font-size: 13.5pt; font-family: MicrosoftYaHei;&quot;&gt;关键细胞和基因靶点&lt;/span&gt;&lt;/div&gt;" style="rounded=0;whiteSpace=wrap;html=1;labelBackgroundColor=none;" vertex="1" parent="1">
          <mxGeometry x="770" y="310" width="100" height="50" as="geometry" />
        </mxCell>
        <mxCell id="YEphL9JRuNFsoVp2nzNq-31" style="edgeStyle=orthogonalEdgeStyle;rounded=0;orthogonalLoop=1;jettySize=auto;html=1;entryX=0.5;entryY=0;entryDx=0;entryDy=0;" edge="1" parent="1" source="YEphL9JRuNFsoVp2nzNq-25">
          <mxGeometry relative="1" as="geometry">
            <mxPoint x="540" y="400" as="targetPoint" />
          </mxGeometry>
        </mxCell>
        <mxCell id="YEphL9JRuNFsoVp2nzNq-25" value="&lt;div&gt;&lt;span style=&quot;font-size: 13.5pt; font-family: MicrosoftYaHei;&quot;&gt;关键年份&lt;/span&gt;&lt;/div&gt;" style="rounded=0;whiteSpace=wrap;html=1;labelBackgroundColor=none;" vertex="1" parent="1">
          <mxGeometry x="490" y="310" width="100" height="50" as="geometry" />
        </mxCell>
        <mxCell id="YEphL9JRuNFsoVp2nzNq-32" style="edgeStyle=orthogonalEdgeStyle;rounded=0;orthogonalLoop=1;jettySize=auto;html=1;entryX=0.5;entryY=0;entryDx=0;entryDy=0;" edge="1" parent="1" target="YEphL9JRuNFsoVp2nzNq-30">
          <mxGeometry relative="1" as="geometry">
            <mxPoint x="540" y="450" as="sourcePoint" />
          </mxGeometry>
        </mxCell>
        <mxCell id="YEphL9JRuNFsoVp2nzNq-29" value="&lt;div&gt;&lt;span style=&quot;font-size: 13.5pt; font-family: MicrosoftYaHei;&quot;&gt;不同年份陈皮黄酮预处理&lt;/span&gt;&lt;/div&gt;" style="rounded=0;whiteSpace=wrap;html=1;labelBackgroundColor=none;" vertex="1" parent="1">
          <mxGeometry x="477.5" y="400" width="125" height="50" as="geometry" />
        </mxCell>
        <mxCell id="YEphL9JRuNFsoVp2nzNq-30" value="&lt;div&gt;&lt;span style=&quot;font-size: 13.5pt; font-family: MicrosoftYaHei;&quot;&gt;尼古丁处理&lt;/span&gt;&lt;/div&gt;" style="rounded=0;whiteSpace=wrap;html=1;labelBackgroundColor=none;" vertex="1" parent="1">
          <mxGeometry x="490" y="490" width="100" height="50" as="geometry" />
        </mxCell>
        <mxCell id="YEphL9JRuNFsoVp2nzNq-33" value="&lt;div&gt;&lt;span style=&quot;font-size: 13.5pt; font-family: MicrosoftYaHei;&quot;&gt;黄酮单体处理&lt;/span&gt;&lt;/div&gt;" style="rounded=0;whiteSpace=wrap;html=1;labelBackgroundColor=none;" vertex="1" parent="1">
          <mxGeometry x="622.5" y="400" width="117.5" height="50" as="geometry" />
        </mxCell>
        <mxCell id="YEphL9JRuNFsoVp2nzNq-35" value="&lt;font face=&quot;MicrosoftYaHei&quot;&gt;&lt;span style=&quot;font-size: 18px;&quot;&gt;细胞类型确定&lt;/span&gt;&lt;/font&gt;" style="rounded=0;whiteSpace=wrap;html=1;labelBackgroundColor=none;" vertex="1" parent="1">
          <mxGeometry x="770" y="400" width="30" height="140" as="geometry" />
        </mxCell>
        <mxCell id="YEphL9JRuNFsoVp2nzNq-36" value="&lt;div&gt;&lt;font face=&quot;MicrosoftYaHei&quot;&gt;&lt;span style=&quot;font-size: 18px;&quot;&gt;基因靶点确定&lt;/span&gt;&lt;/font&gt;&lt;/div&gt;" style="rounded=0;whiteSpace=wrap;html=1;labelBackgroundColor=none;" vertex="1" parent="1">
          <mxGeometry x="840" y="400" width="30" height="140" as="geometry" />
        </mxCell>
        <mxCell id="YEphL9JRuNFsoVp2nzNq-45" style="edgeStyle=orthogonalEdgeStyle;rounded=0;orthogonalLoop=1;jettySize=auto;html=1;entryX=0.5;entryY=0;entryDx=0;entryDy=0;" edge="1" parent="1" source="YEphL9JRuNFsoVp2nzNq-40" target="YEphL9JRuNFsoVp2nzNq-44">
          <mxGeometry relative="1" as="geometry" />
        </mxCell>
        <mxCell id="YEphL9JRuNFsoVp2nzNq-40" value="&lt;div&gt;&lt;span style=&quot;font-size: 13.5pt; font-family: MicrosoftYaHei;&quot;&gt;基因功能验证&lt;/span&gt;&lt;/div&gt;" style="rounded=0;whiteSpace=wrap;html=1;labelBackgroundColor=none;" vertex="1" parent="1">
          <mxGeometry x="892.5" y="280" width="124" height="50" as="geometry" />
        </mxCell>
        <mxCell id="YEphL9JRuNFsoVp2nzNq-47" style="edgeStyle=orthogonalEdgeStyle;rounded=0;orthogonalLoop=1;jettySize=auto;html=1;entryX=0.5;entryY=0;entryDx=0;entryDy=0;" edge="1" parent="1" source="YEphL9JRuNFsoVp2nzNq-42" target="YEphL9JRuNFsoVp2nzNq-46">
          <mxGeometry relative="1" as="geometry" />
        </mxCell>
        <mxCell id="YEphL9JRuNFsoVp2nzNq-42" value="&lt;div&gt;&lt;span style=&quot;font-size: 13.5pt; font-family: MicrosoftYaHei;&quot;&gt;机制研究&lt;/span&gt;&lt;/div&gt;" style="rounded=0;whiteSpace=wrap;html=1;labelBackgroundColor=none;" vertex="1" parent="1">
          <mxGeometry x="1030" y="280" width="124" height="50" as="geometry" />
        </mxCell>
        <mxCell id="YEphL9JRuNFsoVp2nzNq-44" value="&lt;div&gt;&lt;span style=&quot;font-size: 13.5pt; font-family: MicrosoftYaHei;&quot;&gt;过表达和沉默试验&lt;/span&gt;&lt;/div&gt;" style="rounded=0;whiteSpace=wrap;html=1;labelBackgroundColor=none;" vertex="1" parent="1">
          <mxGeometry x="892.5" y="380" width="124" height="50" as="geometry" />
        </mxCell>
        <mxCell id="YEphL9JRuNFsoVp2nzNq-46" value="&lt;div&gt;&lt;span style=&quot;font-size: 13.5pt; font-family: MicrosoftYaHei;&quot;&gt;信号通路分析&lt;/span&gt;&lt;/div&gt;" style="rounded=0;whiteSpace=wrap;html=1;labelBackgroundColor=none;" vertex="1" parent="1">
          <mxGeometry x="1030" y="380" width="124" height="50" as="geometry" />
        </mxCell>
      </root>
    </mxGraphModel>
  </diagram>
</mxfile>
